<?xml version="1.0" standalone="no"?>
<!DOCTYPE svg PUBLIC "-//W3C//DTD SVG 20010904//EN"
 "http://www.w3.org/TR/2001/REC-SVG-20010904/DTD/svg10.dtd">
<svg version="1.0" xmlns="http://www.w3.org/2000/svg"
 width="1000.000000pt" height="1000.000000pt" viewBox="0 0 1000.000000 1000.000000"
 preserveAspectRatio="xMidYMid meet">
<metadata>
Created by potrace 1.11, written by Peter Selinger 2001-2013
</metadata>
<g transform="translate(0.000000,1000.000000) scale(0.100000,-0.100000)"
fill="#000000" stroke="none">
<path d="M6885 9889 c-22 -3 -57 -6 -77 -5 -21 1 -38 -2 -38 -7 0 -5 -7 -4
-15 3 -8 7 -15 8 -15 3 0 -5 -10 -9 -22 -9 -24 -1 -100 -11 -133 -18 -11 -2
-33 -5 -48 -5 -20 -1 -26 -5 -21 -13 6 -10 4 -10 -8 0 -10 8 -19 9 -22 3 -4
-5 -15 -8 -26 -6 -11 2 -20 1 -20 -3 0 -4 -10 -8 -23 -9 -33 -3 -51 -8 -64
-16 -7 -5 -13 -6 -13 -3 0 3 -11 1 -25 -4 -14 -5 -36 -12 -48 -14 -12 -2 -33
-9 -47 -14 -14 -5 -28 -9 -31 -8 -3 0 -13 -5 -22 -13 -10 -7 -17 -11 -17 -8 0
3 -17 -1 -37 -10 -59 -24 -78 -31 -84 -29 -4 0 -16 -8 -28 -18 -12 -11 -21
-16 -21 -12 0 4 -29 -8 -65 -28 -36 -20 -65 -33 -65 -30 0 3 -12 -4 -26 -15
-15 -12 -33 -21 -40 -21 -8 0 -14 -4 -14 -9 0 -4 -22 -19 -49 -32 -27 -13 -47
-27 -45 -31 3 -4 -4 -8 -15 -8 -12 0 -21 -4 -21 -10 0 -5 -4 -10 -10 -10 -10
0 -36 -20 -68 -50 -9 -8 -17 -14 -19 -12 -9 7 -23 1 -18 -8 3 -5 2 -10 -3 -10
-5 0 -18 -8 -30 -17 -52 -45 -62 -53 -62 -49 0 5 -51 -40 -141 -125 -38 -36
-71 -63 -74 -61 -3 3 -5 1 -5 -4 0 -6 -29 -40 -65 -76 -36 -37 -65 -72 -65
-78 0 -6 -4 -8 -10 -5 -5 3 -10 2 -10 -2 0 -8 -45 -65 -82 -105 -10 -10 -18
-21 -18 -24 0 -3 -6 -12 -12 -19 -21 -23 -31 -37 -73 -100 -22 -33 -44 -63
-50 -67 -5 -4 -6 -8 -2 -8 4 0 -1 -10 -12 -22 -11 -11 -18 -25 -15 -30 3 -4 2
-8 -3 -8 -4 0 -21 -26 -38 -58 -16 -31 -33 -58 -37 -60 -5 -2 -8 -12 -8 -23 0
-10 -5 -19 -10 -19 -6 0 -9 -3 -8 -7 0 -5 -7 -26 -17 -48 -10 -22 -18 -43 -17
-47 1 -5 -3 -8 -9 -8 -5 0 -8 -4 -4 -9 3 -5 1 -12 -5 -16 -5 -3 -10 -15 -10
-25 0 -10 -4 -20 -9 -22 -6 -1 -12 -14 -14 -28 -3 -14 -11 -38 -18 -55 -7 -16
-13 -32 -13 -35 -4 -19 -29 -108 -33 -120 -8 -20 -13 -41 -15 -62 -1 -10 -5
-18 -8 -18 -3 0 -6 -15 -5 -32 0 -18 -3 -35 -7 -38 -8 -6 -19 -77 -21 -132 -1
-21 -6 -38 -11 -38 -5 0 -6 -3 -3 -7 4 -3 1 -13 -6 -21 -10 -13 -9 -14 1 -8 9
6 11 2 7 -16 -3 -12 -7 -48 -8 -78 -2 -30 -6 -61 -10 -67 -5 -8 -3 -13 3 -13
8 0 9 -7 5 -17 -11 -27 -14 -63 -5 -63 8 0 4 -55 -5 -71 -4 -5 -2 -9 4 -9 10
0 10 -18 -2 -37 -4 -6 -4 -14 1 -17 5 -3 8 -30 8 -60 -1 -31 2 -56 5 -56 3 0
4 -16 3 -35 -2 -19 0 -35 4 -35 4 0 8 -21 9 -47 1 -25 5 -49 10 -52 4 -3 9
-17 9 -31 1 -24 11 -75 14 -75 1 0 3 -8 5 -18 10 -51 30 -117 35 -117 4 0 7
-6 7 -12 1 -22 8 -43 16 -49 4 -3 9 -15 12 -27 5 -28 36 -95 48 -103 5 -3 9
-9 8 -12 -1 -16 30 -77 40 -77 5 0 8 -4 5 -9 -3 -5 4 -20 15 -35 11 -14 18
-26 14 -26 -4 0 0 -7 7 -15 19 -21 30 -36 58 -77 14 -21 28 -38 33 -38 4 0 7
-5 7 -12 0 -7 12 -23 27 -35 14 -13 23 -23 19 -23 -3 0 29 -36 73 -80 43 -44
84 -80 90 -80 6 0 11 -6 11 -13 0 -7 18 -23 39 -37 22 -13 37 -29 34 -34 -4
-6 -3 -8 2 -4 4 4 29 -8 55 -27 26 -19 52 -35 58 -35 6 0 12 -3 14 -7 3 -8
132 -74 143 -74 2 0 25 -8 50 -19 25 -11 45 -17 45 -15 0 3 22 -4 49 -15 27
-10 51 -16 54 -14 3 3 15 1 26 -6 16 -8 21 -8 21 2 0 10 2 10 8 0 5 -7 33 -13
65 -15 31 -1 57 -6 57 -10 0 -4 8 -3 19 2 10 6 21 8 24 5 3 -4 22 -8 42 -10
26 -2 34 0 28 9 -5 9 -3 9 8 0 12 -10 18 -10 27 -1 7 7 12 8 12 2 0 -5 9 -10
20 -10 11 0 20 3 20 6 0 4 6 7 13 7 23 0 129 19 135 23 1 2 5 3 10 4 4 1 17 7
30 14 12 7 27 10 32 7 6 -3 10 -2 10 3 0 8 26 20 46 20 3 1 12 9 20 19 7 10
14 15 14 11 0 -8 28 13 67 49 13 12 23 20 23 18 0 -3 9 3 19 12 11 9 18 20 16
23 -2 4 7 13 20 20 14 7 25 19 25 25 0 6 9 21 19 32 11 12 17 24 14 27 -4 3
-2 6 4 6 10 0 26 36 24 53 -1 4 4 7 10 7 6 0 9 9 6 20 -3 10 0 18 5 17 6 -1
12 12 14 28 5 38 12 70 14 70 2 0 3 46 4 102 0 55 -1 100 -5 98 -3 -2 -11 17
-17 42 -18 67 -122 191 -174 209 -10 3 -18 10 -18 15 0 5 -7 9 -15 9 -8 0 -15
5 -15 11 0 6 -6 9 -12 7 -7 -3 -19 1 -26 9 -8 7 -18 11 -23 8 -5 -4 -9 -1 -9
6 0 7 -3 9 -7 6 -3 -4 -15 1 -26 10 -11 10 -18 13 -14 7 3 -6 -21 2 -53 18
-33 15 -64 28 -68 28 -5 0 -17 9 -26 19 -10 11 -24 17 -32 14 -8 -3 -14 0 -14
6 0 6 -7 11 -15 11 -8 0 -15 5 -15 10 0 6 -5 10 -11 10 -35 0 -221 183 -224
220 -1 3 -9 19 -18 37 -9 18 -17 41 -17 53 0 11 -4 20 -9 20 -5 0 -9 10 -9 23
-1 22 -9 62 -12 62 -1 0 -3 19 -5 43 -1 24 -5 46 -9 49 -3 3 -1 12 5 20 6 7 8
13 3 13 -5 0 -7 26 -6 58 2 31 5 78 5 105 1 26 4 47 7 47 3 0 6 10 7 23 0 12
3 36 7 52 4 17 10 44 13 60 3 17 9 33 15 36 5 3 9 8 8 10 -4 9 13 79 19 79 4
0 8 6 8 13 0 6 11 35 23 62 13 28 24 53 24 57 1 4 8 16 16 26 8 10 24 36 35
58 47 92 225 299 350 405 53 44 152 108 159 102 3 -4 6 -2 6 4 0 6 14 16 30
23 17 7 30 15 30 19 0 4 10 8 22 8 13 1 24 7 26 13 2 5 8 8 12 5 5 -3 17 -1
27 4 35 19 68 29 126 38 20 3 37 10 37 16 0 5 7 4 15 -3 8 -7 15 -8 15 -3 0 5
17 9 38 8 20 0 43 3 50 8 8 6 12 5 12 -3 0 -10 3 -10 15 0 12 10 15 10 15 0 0
-10 3 -10 14 -1 11 9 15 9 19 -1 4 -11 6 -10 6 0 1 8 6 10 14 5 6 -4 28 -8 47
-8 19 0 41 -4 48 -9 7 -4 16 -6 19 -3 2 3 22 -1 44 -8 21 -8 39 -12 39 -9 0 2
11 -3 25 -12 14 -9 25 -12 25 -8 0 5 4 4 8 -2 4 -6 28 -21 55 -33 26 -13 47
-27 47 -32 0 -5 6 -9 13 -9 18 0 121 -102 154 -152 15 -24 32 -46 38 -50 5 -4
7 -8 4 -8 -3 0 4 -29 16 -64 25 -74 27 -220 4 -261 -3 -5 -5 -22 -4 -37 1 -16
-2 -28 -7 -28 -4 0 -6 -11 -4 -25 3 -14 1 -25 -4 -25 -4 0 -11 -15 -14 -32
-11 -55 -12 -61 -26 -108 -8 -25 -14 -48 -16 -52 -1 -5 -3 -11 -4 -15 -1 -5
-2 -11 -1 -15 0 -5 -3 -8 -8 -8 -6 0 -9 -8 -8 -18 0 -10 -7 -35 -17 -55 -9
-21 -15 -41 -11 -46 3 -5 0 -11 -5 -13 -6 -2 -13 -16 -16 -32 -3 -16 -12 -42
-20 -57 -8 -16 -14 -30 -13 -31 1 -3 -13 -39 -34 -90 -9 -21 -13 -38 -10 -38
3 0 -2 -11 -11 -25 -9 -13 -18 -32 -19 -42 -2 -10 -10 -31 -16 -48 -22 -53
-29 -70 -29 -78 0 -4 -7 -18 -14 -30 -8 -12 -30 -63 -48 -114 -19 -50 -37 -90
-41 -87 -4 2 -5 -5 -2 -16 3 -12 0 -20 -7 -20 -6 0 -10 -6 -7 -12 2 -7 -5 -28
-15 -46 -10 -18 -18 -39 -18 -47 0 -8 -4 -15 -9 -15 -6 0 -8 -9 -6 -20 2 -11
0 -20 -4 -20 -9 0 -26 -48 -23 -62 1 -5 -2 -8 -7 -8 -8 0 -24 -41 -25 -65 -1
-5 -7 -16 -14 -23 -7 -8 -10 -18 -7 -23 4 -5 1 -9 -5 -9 -6 0 -10 -6 -9 -12 2
-13 -6 -37 -41 -112 -11 -25 -20 -52 -20 -60 0 -9 -5 -16 -12 -16 -6 0 -9 -3
-5 -6 3 -3 -8 -35 -24 -71 -16 -36 -29 -71 -29 -79 0 -8 -4 -14 -10 -14 -5 0
-9 -3 -8 -7 1 -5 -4 -24 -11 -43 -8 -19 -15 -37 -16 -40 -6 -16 -20 -50 -36
-87 -10 -24 -15 -43 -12 -43 3 0 -1 -8 -9 -17 -8 -10 -14 -25 -13 -33 0 -8 -4
-18 -10 -22 -5 -4 -10 -11 -10 -15 0 -8 -17 -54 -40 -108 -7 -16 -19 -47 -26
-67 -7 -21 -17 -38 -21 -38 -4 0 -7 -3 -7 -7 4 -22 -15 -72 -25 -66 -6 3 -8 3
-4 -1 3 -4 0 -25 -7 -46 -7 -21 -10 -41 -7 -45 4 -4 0 -5 -8 -3 -10 2 -15 -4
-14 -19 1 -13 -3 -23 -7 -23 -5 0 -8 -3 -6 -8 2 -8 -33 -93 -43 -102 -3 -3 -6
-14 -5 -25 0 -11 -4 -23 -9 -27 -5 -3 -11 -13 -12 -20 -1 -8 -11 -34 -23 -58
-11 -24 -21 -49 -21 -55 0 -7 -6 -25 -14 -41 -32 -64 -75 -178 -70 -186 3 -4
0 -8 -6 -8 -6 0 -8 -4 -5 -10 3 -6 1 -10 -4 -10 -6 0 -11 -7 -11 -15 0 -13
-25 -75 -51 -127 -5 -10 -9 -25 -9 -34 0 -9 -8 -23 -17 -31 -10 -8 -13 -12 -6
-9 8 5 8 0 0 -19 -7 -14 -15 -25 -19 -25 -4 0 -5 -9 -3 -20 2 -11 0 -18 -6
-15 -5 4 -9 3 -9 -2 0 -12 -104 -10 -112 2 -5 6 -8 5 -8 -3 0 -9 -5 -10 -18
-3 -10 5 -23 7 -29 3 -6 -4 -52 -7 -102 -7 -55 0 -91 -4 -91 -10 0 -6 -3 -6
-8 1 -9 13 -105 13 -114 -1 -5 -6 -8 -6 -8 1 0 7 -20 9 -57 7 -32 -2 -69 -3
-83 -3 -14 1 -31 1 -37 1 -47 -2 -131 -1 -148 2 -11 2 -29 1 -40 -3 -11 -4
-30 -4 -42 1 -13 5 -23 5 -23 1 0 -10 -152 -9 -167 1 -9 6 -11 3 -6 -9 5 -14
3 -15 -15 -5 -12 7 -22 8 -22 4 0 -5 -26 -8 -57 -7 -32 0 -66 -3 -75 -8 -10
-5 -19 -4 -23 2 -4 6 -11 8 -16 4 -6 -3 -36 -8 -67 -11 -72 -6 -117 -11 -117
-13 0 -1 -31 -3 -69 -6 -39 -3 -76 -10 -83 -16 -9 -7 -13 -7 -13 0 0 8 -9 8
-30 0 -17 -5 -37 -7 -45 -4 -8 3 -15 2 -15 -2 0 -5 -12 -9 -27 -9 -16 0 -41
-4 -58 -8 -16 -4 -46 -8 -65 -10 -19 -1 -34 -7 -33 -11 1 -5 -19 -9 -43 -8
-24 0 -44 -2 -44 -6 0 -3 -10 -7 -22 -8 -26 -3 -63 -10 -63 -12 0 -1 -13 -4
-30 -6 -16 -3 -32 -9 -35 -12 -3 -4 -15 -7 -27 -6 -13 1 -23 -2 -23 -5 0 -4
-12 -8 -27 -9 -15 -1 -30 -8 -35 -15 -4 -6 -8 -9 -8 -5 0 4 -30 -2 -67 -14
-38 -11 -74 -20 -80 -21 -7 0 -13 -4 -13 -9 0 -5 -4 -6 -10 -3 -5 3 -10 2 -10
-4 0 -5 -9 -8 -20 -6 -11 2 -20 0 -20 -4 0 -4 -18 -13 -40 -20 -43 -13 -155
-61 -202 -87 -16 -8 -28 -12 -28 -7 0 4 -4 3 -8 -2 -4 -6 -18 -16 -32 -23 -78
-39 -240 -136 -270 -162 -12 -11 -27 -20 -32 -20 -5 0 -14 -5 -21 -10 -29 -24
-57 -46 -77 -60 -34 -23 -132 -102 -157 -126 -12 -12 -26 -24 -30 -25 -5 -2
-18 -17 -31 -33 -12 -16 -22 -25 -22 -20 0 9 -102 -97 -164 -170 -22 -27 -48
-57 -56 -66 -46 -49 -180 -246 -173 -254 4 -3 1 -6 -5 -6 -7 0 -12 -7 -12 -15
0 -8 -5 -15 -11 -15 -5 0 -8 -4 -4 -9 3 -6 -1 -13 -9 -18 -8 -4 -15 -12 -17
-18 -3 -18 -12 -40 -19 -45 -9 -7 -40 -76 -40 -89 0 -6 -5 -11 -11 -11 -6 0
-9 -6 -6 -14 3 -8 -3 -23 -14 -35 -11 -12 -17 -21 -13 -21 3 0 0 -10 -8 -22
-8 -13 -14 -31 -12 -41 1 -9 -2 -17 -7 -17 -5 0 -9 -9 -9 -20 0 -11 -5 -20
-11 -20 -5 0 -8 -4 -5 -9 3 -4 -3 -32 -14 -62 -11 -29 -20 -62 -20 -71 0 -10
-4 -18 -9 -18 -4 0 -7 -11 -5 -25 1 -14 -3 -31 -9 -38 -7 -6 -12 -23 -13 -37
-1 -24 -7 -65 -20 -125 -4 -16 -7 -45 -7 -62 1 -18 -2 -33 -6 -33 -8 0 -11
-83 -10 -280 1 -203 3 -250 9 -250 3 0 6 -15 7 -32 1 -55 7 -98 13 -98 3 0 5
-15 5 -32 0 -18 3 -40 7 -49 4 -9 10 -31 13 -49 9 -53 10 -55 15 -60 3 -3 12
-30 19 -60 8 -30 21 -71 29 -90 9 -19 17 -38 18 -42 1 -5 3 -11 4 -15 1 -5 2
-11 1 -15 0 -5 3 -8 7 -8 4 0 14 -20 21 -45 7 -25 18 -45 23 -45 6 0 8 -7 4
-15 -3 -8 -2 -15 2 -15 5 0 23 -28 41 -63 19 -34 40 -69 47 -78 8 -8 14 -20
14 -26 0 -5 9 -18 20 -28 11 -10 18 -20 16 -23 -3 -2 4 -14 15 -26 11 -11 40
-48 66 -81 63 -80 197 -225 208 -225 4 0 36 -28 96 -85 9 -8 21 -15 28 -15 7
0 9 -5 6 -10 -3 -6 1 -10 9 -10 9 0 16 -4 16 -8 0 -5 12 -15 28 -23 15 -8 29
-17 32 -20 15 -17 131 -89 144 -89 9 0 16 -4 16 -8 0 -6 80 -52 100 -57 3 -1
28 -13 56 -26 28 -14 58 -25 67 -23 10 1 15 -1 13 -5 -5 -7 165 -64 190 -64 8
0 14 -3 14 -7 0 -4 6 -7 13 -7 6 0 39 -6 72 -13 33 -8 75 -14 93 -14 17 -1 32
-3 32 -6 0 -6 48 -13 98 -13 17 0 32 -3 32 -6 0 -4 9 -7 20 -8 11 -1 18 1 16
5 -3 4 4 8 14 8 10 0 16 -4 14 -8 -8 -13 370 -7 379 6 5 8 10 7 16 -3 6 -9 14
-10 22 -5 8 5 25 10 39 10 14 1 25 3 25 4 0 1 14 4 30 5 41 5 146 22 155 25 3
1 13 2 23 1 9 -1 17 2 17 7 0 6 8 9 18 7 9 -1 23 3 31 9 8 6 16 10 18 9 1 -2
15 -3 29 -3 17 0 23 4 18 12 -5 8 -2 9 11 5 9 -4 24 -2 31 4 8 6 14 9 14 6 0
-3 15 0 34 8 18 8 36 11 39 8 4 -3 9 2 13 11 3 9 10 13 15 10 6 -3 17 0 26 8
9 7 17 12 17 10 1 -2 14 1 29 7 16 6 33 11 38 11 5 0 9 5 9 12 0 6 3 9 6 5 3
-3 29 7 57 21 29 14 55 25 60 24 4 -1 7 2 7 8 0 6 3 9 8 8 4 -1 18 5 32 13 14
9 59 38 100 64 80 50 203 143 208 157 2 4 8 8 12 8 5 0 45 35 89 78 45 43 83
76 86 74 3 -3 5 0 5 7 0 8 17 29 37 47 20 19 34 34 31 34 -4 0 6 15 23 32 16
18 29 36 29 41 0 4 5 5 10 2 6 -3 10 0 10 8 0 8 7 18 16 21 8 3 12 10 9 16 -3
5 -2 10 2 10 5 0 31 30 58 67 27 38 52 70 55 73 14 13 70 102 70 111 0 6 5 7
10 4 6 -3 10 1 10 10 0 15 44 82 63 96 5 3 9 10 9 15 0 5 22 46 49 90 27 45
49 87 49 93 0 6 4 11 9 11 5 0 14 15 22 33 7 17 15 34 18 37 3 3 15 23 26 45
11 22 22 42 26 45 8 7 22 44 21 52 -1 5 3 8 9 8 5 0 8 4 4 9 -3 6 1 13 9 18 8
4 15 11 15 16 0 4 12 33 27 65 15 31 27 62 27 69 0 7 4 10 8 7 6 -3 20 23 24
46 0 3 6 15 13 28 7 12 10 22 7 22 -4 0 1 7 9 16 9 8 19 27 22 42 4 15 14 35
23 46 9 10 15 20 14 22 -7 11 -2 24 7 19 6 -4 10 -3 8 2 -4 16 14 73 23 73 5
0 8 3 7 8 -1 7 5 23 45 114 14 31 23 59 19 62 -3 3 0 6 6 6 7 0 12 8 12 18 0
10 7 27 15 39 8 12 16 29 18 40 2 10 13 40 25 67 12 27 22 55 22 62 0 8 5 14
11 14 5 0 8 3 6 8 -3 4 3 25 14 46 10 22 17 41 14 44 -2 2 3 11 11 19 8 8 12
19 9 24 -4 5 -1 9 4 9 6 0 10 3 10 8 -1 4 0 10 1 15 1 4 3 10 4 15 7 31 32 82
40 82 5 0 7 3 3 6 -3 4 1 20 9 36 8 16 12 33 9 38 -3 6 -1 10 4 10 6 0 11 9
11 20 0 11 5 20 11 20 6 0 9 6 6 14 -3 7 0 19 6 25 7 7 12 15 13 19 1 9 13 39
32 82 8 19 15 41 15 48 0 6 5 12 10 12 6 0 7 3 4 7 -4 3 0 17 8 30 9 13 13 23
10 23 -3 0 2 15 12 33 9 17 16 38 15 45 -2 6 2 12 8 12 5 0 9 3 8 8 -3 15 22
62 34 63 57 5 121 3 125 -4 3 -4 12 -2 21 5 13 11 14 11 7 -1 -6 -11 -5 -12 6
-5 21 13 39 14 39 2 0 -6 6 -5 15 2 11 9 18 10 28 1 8 -6 17 -8 20 -4 10 9 59
10 85 1 14 -5 21 -4 17 1 -3 6 4 9 15 8 11 -1 20 -5 20 -10 0 -6 5 -6 13 -1 6
5 26 8 42 7 40 -4 42 -4 98 0 27 1 51 -1 54 -6 2 -4 12 -2 21 5 13 11 14 11 7
-1 -6 -11 -5 -12 6 -5 21 13 39 14 39 2 0 -6 6 -5 15 2 11 9 18 10 28 1 8 -6
17 -8 20 -4 10 9 59 10 85 1 14 -5 21 -4 17 1 -3 6 4 9 15 8 11 -1 20 -5 20
-10 0 -4 5 -5 12 -1 7 4 46 9 88 11 69 2 125 8 125 12 0 1 18 4 40 6 22 2 51
6 65 10 14 3 32 8 40 10 8 2 16 4 18 5 3 3 13 6 50 15 17 4 32 11 32 16 0 5 9
9 20 9 11 0 20 4 20 10 0 5 3 9 8 8 14 -4 52 13 52 23 0 6 5 7 10 4 6 -3 13 1
16 9 3 9 9 14 13 12 4 -3 27 13 50 35 24 21 47 39 52 39 5 0 9 5 9 10 0 6 12
24 28 41 15 17 26 35 25 40 -2 5 1 9 5 9 8 0 32 42 38 65 1 6 9 27 18 48 9 21
14 42 11 47 -4 6 -2 10 4 10 6 0 8 7 5 15 -4 8 -2 15 3 15 4 0 8 17 7 37 -1
21 2 45 6 54 6 10 5 20 -2 27 -8 8 -8 15 1 26 8 10 9 16 1 21 -6 4 -10 12 -8
18 3 17 -11 84 -24 116 -6 14 -12 28 -12 31 -2 13 -53 78 -81 105 -38 36 -58
49 -105 71 -19 8 -43 20 -52 25 -10 5 -29 9 -43 9 -14 0 -25 4 -25 8 0 5 -6 9
-12 9 -7 0 -38 4 -68 8 -30 4 -83 8 -116 10 -34 1 -67 5 -73 9 -6 4 -11 4 -11
-1 0 -10 -52 -9 -68 1 -7 4 -12 4 -12 -1 0 -12 -94 -10 -102 2 -5 6 -8 5 -8
-3 0 -9 -5 -10 -18 -3 -10 5 -23 6 -30 2 -14 -8 -54 -7 -70 3 -7 4 -12 2 -12
-6 0 -9 -3 -9 -10 2 -5 8 -10 10 -10 5 0 -12 -70 -12 -88 -1 -7 4 -12 2 -12
-5 0 -8 -4 -8 -13 -1 -7 6 -18 8 -24 4 -15 -9 -55 -8 -71 2 -7 4 -12 2 -12 -6
0 -9 -3 -9 -10 2 -5 8 -10 10 -10 5 0 -12 -70 -12 -88 -1 -7 4 -12 2 -12 -4 0
-6 -4 -8 -10 -5 -6 4 -6 13 -1 23 14 25 41 89 41 95 0 3 10 27 22 54 11 26 23
57 25 67 2 11 8 25 14 32 6 7 8 18 4 24 -3 5 -2 10 2 10 5 0 15 15 22 33 16
36 14 33 24 70 4 15 12 27 18 27 6 0 7 5 4 10 -4 6 -1 17 5 25 6 8 9 19 5 25
-3 5 -2 10 4 10 5 0 12 10 16 23 3 12 10 31 15 42 5 11 28 67 50 125 39 99 47
119 70 173 5 12 17 40 26 62 9 22 16 46 15 53 -1 6 3 12 10 12 6 0 9 7 5 15
-3 8 -1 15 4 15 6 0 10 9 10 20 0 11 5 20 10 20 6 0 10 9 10 20 0 12 8 35 17
53 9 18 18 38 20 45 2 6 4 18 6 25 2 6 11 27 20 45 10 17 15 32 12 32 -3 0 1
10 10 23 8 13 12 27 8 30 -3 4 -1 7 5 7 7 0 12 8 12 18 0 10 3 22 8 26 4 4 7
11 8 14 0 4 8 24 17 46 9 21 17 42 17 46 0 10 37 97 55 130 7 14 14 28 14 32
2 12 12 39 29 78 8 19 14 41 13 48 -1 6 3 12 10 12 6 0 8 7 5 15 -3 9 1 18 8
21 8 3 13 14 11 24 -2 10 3 24 11 30 7 7 12 16 9 20 -3 5 -1 11 5 15 6 4 8 11
5 16 -4 5 -1 9 4 9 6 0 11 8 11 18 0 10 3 22 7 26 4 3 8 12 9 19 1 7 15 44 32
82 29 69 44 105 47 115 7 21 27 71 44 113 6 12 23 56 39 97 39 99 45 114 46
120 1 3 7 15 14 26 6 12 8 24 5 28 -3 3 -1 6 5 6 7 0 11 3 10 8 -1 4 4 19 10
35 24 55 34 82 38 101 2 11 9 23 16 27 7 4 10 11 6 14 -3 3 8 41 24 83 16 42
32 88 34 101 3 14 8 29 12 35 3 6 7 17 8 26 1 8 14 55 28 104 14 49 23 93 20
97 -3 5 0 9 6 9 6 0 9 4 5 9 -3 5 -1 12 3 15 5 3 8 17 7 31 -2 14 0 25 3 25 4
0 8 12 8 28 2 32 8 63 15 77 3 6 5 25 4 43 -1 17 1 32 4 32 3 0 6 24 6 53 0
28 2 71 6 94 3 23 2 46 -4 52 -5 5 -5 11 2 15 7 5 7 15 1 32 -6 14 -6 23 -1
20 5 -3 6 8 2 27 -3 17 -6 51 -6 74 0 24 -4 43 -10 43 -5 0 -3 5 5 10 8 5 10
10 4 10 -6 0 -11 12 -12 28 0 15 -1 29 -2 32 -1 3 -4 14 -6 25 -2 11 -5 27 -7
35 -2 8 -7 33 -12 55 -4 22 -12 45 -17 52 -5 7 -7 16 -5 20 5 8 -10 50 -34 95
-5 10 -9 25 -9 34 0 8 -7 22 -15 30 -8 9 -18 27 -22 42 -3 15 -9 29 -12 32 -3
3 -17 25 -30 50 -23 42 -90 145 -118 180 -52 64 -302 305 -317 305 -3 0 -14 8
-25 17 -11 9 -22 14 -25 11 -3 -4 -6 -2 -6 3 0 6 -19 21 -42 34 -24 13 -45 26
-48 30 -10 14 -168 89 -174 83 -3 -4 -6 -2 -6 4 0 9 -35 24 -63 27 -4 1 -11 7
-16 14 -5 8 -11 13 -15 12 -15 -3 -77 13 -82 21 -3 5 -10 7 -15 4 -5 -4 -9 -2
-9 4 0 5 -8 8 -17 6 -10 -1 -22 0 -28 3 -5 4 -19 7 -30 9 -23 2 -44 7 -65 16
-8 4 -35 9 -60 12 -25 3 -56 8 -70 11 -14 2 -42 6 -62 7 -21 0 -38 4 -38 7 0
3 -42 6 -93 8 -104 3 -100 3 -147 0 -20 -1 -40 0 -45 3 -6 3 -28 2 -50 -2z
m-1428 -6395 c18 -1 31 1 29 5 -3 4 6 7 20 7 13 0 24 -4 24 -9 0 -5 7 -4 15 3
12 10 19 10 27 2 8 -8 15 -8 24 -1 8 7 14 7 19 -1 5 -8 11 -7 23 2 13 11 14
11 7 -1 -6 -10 -4 -12 6 -6 12 8 33 10 69 6 13 -1 8 -35 -8 -53 -6 -8 -9 -18
-5 -21 3 -4 1 -7 -6 -7 -7 0 -10 -3 -7 -8 2 -4 -2 -23 -10 -42 -9 -19 -15 -36
-15 -37 0 -2 -11 -27 -24 -57 -13 -30 -21 -57 -18 -60 4 -3 1 -6 -5 -6 -7 0
-12 -9 -12 -19 0 -11 -4 -22 -9 -25 -8 -5 -25 -64 -22 -78 0 -5 -3 -8 -9 -8
-5 0 -10 -5 -10 -11 0 -6 -7 -27 -16 -47 -9 -21 -22 -52 -30 -70 -8 -18 -14
-39 -14 -47 0 -8 -4 -15 -8 -15 -5 0 -9 -6 -9 -12 0 -7 -7 -29 -15 -48 -14
-30 -27 -64 -33 -80 -5 -16 -27 -65 -45 -102 -11 -23 -20 -48 -20 -55 0 -7 -5
-13 -12 -13 -6 0 -9 -3 -5 -6 3 -4 -1 -21 -10 -38 -10 -17 -17 -33 -18 -36 -2
-16 -128 -266 -137 -271 -5 -3 -9 -8 -8 -10 3 -7 -24 -64 -37 -77 -12 -12 -14
-20 -12 -38 0 -3 -9 -14 -21 -24 -12 -10 -21 -21 -21 -24 1 -17 -15 -45 -46
-80 -7 -8 -9 -16 -6 -20 3 -3 -2 -8 -11 -12 -9 -3 -13 -10 -10 -15 3 -5 0 -9
-6 -9 -6 0 -9 -4 -5 -9 3 -6 0 -13 -7 -18 -7 -4 -26 -28 -42 -53 -16 -25 -39
-55 -52 -66 -13 -12 -21 -24 -18 -26 2 -3 -16 -26 -41 -51 -25 -26 -43 -47
-40 -47 3 0 -19 -22 -48 -50 -28 -27 -56 -50 -60 -50 -5 0 -5 -4 -2 -10 3 -5
2 -10 -3 -10 -5 0 -22 -11 -38 -25 -46 -40 -148 -108 -161 -108 -7 0 -13 -4
-13 -7 0 -4 -13 -13 -30 -20 -16 -7 -30 -17 -30 -23 0 -6 -3 -8 -6 -4 -3 3
-29 -3 -58 -15 -28 -11 -59 -22 -69 -24 -10 -2 -28 -6 -40 -10 -12 -4 -35 -8
-52 -10 -16 -1 -30 -3 -30 -4 0 -12 -249 -15 -268 -3 -6 4 -21 8 -32 9 -39 4
-80 15 -89 24 -5 5 -15 6 -22 3 -8 -3 -14 -1 -14 4 0 6 -18 16 -40 23 -22 7
-40 17 -40 22 0 4 -3 7 -7 6 -14 -5 -102 57 -103 71 0 8 -3 12 -6 8 -6 -6 -47
26 -73 57 -9 11 -25 29 -36 40 -32 32 -95 122 -95 135 0 6 -5 11 -12 11 -6 0
-8 3 -5 6 4 4 -3 20 -14 35 -11 16 -17 29 -14 29 4 0 0 11 -9 25 -9 14 -14 25
-10 25 4 0 1 7 -6 15 -7 8 -9 15 -5 15 4 0 0 11 -9 25 -11 16 -12 25 -5 25 8
0 8 4 -1 15 -6 8 -9 19 -6 24 4 5 2 12 -3 15 -5 4 -8 17 -6 31 1 14 -1 25 -4
25 -3 0 -6 29 -5 64 0 39 -4 62 -10 59 -5 -4 -6 -1 0 8 5 8 9 39 11 69 1 30 2
56 4 58 1 1 3 7 4 12 1 6 3 11 5 13 1 1 3 16 4 32 1 17 8 50 15 75 7 25 14 50
15 57 1 7 5 16 9 19 4 4 7 16 7 26 0 10 5 18 10 18 6 0 10 9 10 20 0 11 5 20
10 20 6 0 10 3 9 8 -2 16 14 52 24 52 6 0 8 3 4 6 -6 7 77 134 112 172 12 12
19 22 16 22 -3 0 32 38 78 85 46 47 87 85 91 85 4 0 21 12 36 28 44 41 58 52
69 52 5 0 12 7 15 16 3 8 10 12 16 9 5 -3 10 -1 10 4 0 6 5 11 10 11 6 0 20 9
32 20 12 10 25 17 29 14 4 -2 11 1 16 8 4 7 40 29 78 48 39 19 76 39 84 44 7
6 18 11 25 12 6 1 34 12 61 25 28 13 55 23 60 24 6 0 20 6 33 13 12 7 22 10
22 6 0 -3 7 -1 15 6 8 6 19 9 25 5 5 -3 10 -2 10 3 0 8 14 13 78 28 8 1 21 6
30 10 9 4 24 8 32 9 28 3 75 16 93 26 11 6 17 6 17 -2 0 -8 4 -8 13 -1 6 5 35
14 62 18 28 4 53 9 58 10 4 1 16 2 28 3 13 1 18 5 13 14 -5 9 -4 9 5 1 8 -8
25 -9 49 -3 20 4 62 10 92 13 30 3 78 9 105 12 28 4 69 7 93 8 23 0 42 4 42 9
0 5 6 4 13 -2 8 -6 17 -8 21 -4 4 4 24 8 44 9 20 1 74 3 120 5 46 2 86 7 88
11 3 5 10 5 17 1 6 -3 26 -8 44 -9z"/>
</g>
</svg>
